<?xml version='1.0' encoding='utf-8'?>
<!-- Generator: Adobe Illustrator 16.0.0, SVG Export Plug-In . SVG Version: 6.00 Build 0)  -->
<!DOCTYPE svg PUBLIC "-//W3C//DTD SVG 1.1//EN" "http://www.w3.org/Graphics/SVG/1.1/DTD/svg11.dtd">
<svg version="1.1" id="svg9559" xmlns:dc="http://purl.org/dc/elements/1.1/" xmlns:cc="http://web.resource.org/cc/" xmlns:rdf="http://www.w3.org/1999/02/22-rdf-syntax-ns#" xmlns:svg="http://www.w3.org/2000/svg" xmlns:sodipodi="http://sodipodi.sourceforge.net/DTD/sodipodi-0.dtd" xmlns:inkscape="http://www.inkscape.org/namespaces/inkscape" sodipodi:version="0.32" inkscape:version="0.45.1" inkscape:output_extension="org.inkscape.output.svg.inkscape" sodipodi:docbase="C:\Users\svg" sodipodi:docname="USA_Counties - Copy.svg" xmlns="http://www.w3.org/2000/svg" xmlns:xlink="http://www.w3.org/1999/xlink" x="0px" y="0px" width="500px" height="500px" viewbox="-200 -169.5 500 500" enable-background="new -200 -169.5 500 500" xml:space="preserve">
 <sodipodi:namedview id="base" borderopacity="1.0" gridtolerance="10.0" objecttolerance="10.0" guidetolerance="10.0" bordercolor="#666666" pagecolor="#ffffff" inkscape:zoom="53.794391" inkscape:cx="481.02216" inkscape:cy="213.98251" showguides="true" inkscape:pageshadow="2" inkscape:pageopacity="0.0" inkscape:current-layer="svg9559" inkscape:guide-bbox="true" inkscape:window-height="1000" inkscape:window-width="1680" inkscape:window-x="-8" inkscape:window-y="-8" />
 <path id="015" inkscape:label="Del Norte, CA" fill="#D0D0D0" stroke="#000000" stroke-width="0.1" stroke-linejoin="bevel" d="
	M-54.839-156.506l11.939,3.755l9.378,2.593l-1.031,1.727l-1.422,1.852l-2.199,0.207l-3.075,2.742l-2.454,11.348l0.289,1.001
	l0.289,2.787l-0.184,0.528l-1.513,1.756l-0.837,0.581l-1.771-0.519l-1.256-1.68l0.667-2.245l-3.545-1.149l-5.574-1.631l0.542-3.621
	l0.12-2.471l0.048-4.849l-0.013-0.407l-0.077-0.516l-0.169-0.561l0.743-7.137L-54.839-156.506" style="font-size:12px;fill-rule:nonzero;stroke:#000000;stroke-width:0.1;stroke-linecap:butt;stroke-linejoin:bevel;stroke-miterlimit:4;stroke-opacity:1;stroke-dasharray:none;marker-start:none;fill:#9C2423">
 </path>
 <path id="093" inkscape:label="Siskiyou, CA" fill="#D0D0D0" stroke="#000000" stroke-width="0.1" stroke-linejoin="bevel" d="
	M-33.522-150.157l8.878,2.485l0.078,0.017l2.316,0.479l3.304,1.202l1.362,0.407l0.802,0.23l10.501,2.967l4.166,1.031l3.801,1.031
	l0.985,0.318l1.729,0.528l25.892,7.714l-0.837,1.907l-0.299,1.048l-1.65,6.089l0.045,0.135l0.151,0.092l-3.939,14.634l-2.836,10.35
	l-17.344-4.818l-8.984-2.607l-6.546-1.756l0.788-4.409l-3.833-2.36l-6.804,2.679l-4.744,4.911l0.29,2.012l-0.394,0.7l-0.726,0.575
	l-0.622-0.089l-2.544-1.294l-4.363-4.605l-2.394-3.588l-1.486-1.438l-1.546-1.248l0.243-8.466l-0.606-0.863l-4.972-1.471
	l0.837-0.578l1.512-1.753l0.185-0.532l-0.289-2.787l-0.289-1.001l2.454-11.349l3.075-2.741l2.199-0.207l1.421-1.855L-33.522-150.157
	" style="font-size:12px;fill-rule:nonzero;stroke:#000000;stroke-width:0.1;stroke-linecap:butt;stroke-linejoin:bevel;stroke-miterlimit:4;stroke-opacity:1;stroke-dasharray:none;marker-start:none;fill:#FF7F40">
 </path>
 <path id="025" inkscape:label="Imperial, CA" fill="#D0D0D0" stroke="#000000" stroke-width="0.1" stroke-linejoin="bevel" d="
	M118.863,274.936l21.787,4.56l17.877,3.503l4.636,0.799l7.192,1.439l-3.631,0.897l-2.138,13.15l0.03,0.071l0.755,2.016l1.668,1.17
	l0.591,0.258l3.15,0.529l0.109,0.122l0.104,0.107l1.074,2.508l-0.349,2.854l-0.321,1.105v0.017l-1.569,2.21l-5.028,3.121
	l-3.809-0.285l-0.211-0.017l-26.786-3.181l-0.528-0.065l-3.047-0.361l-11.314-1.347l-4.82-0.563l-3.545-0.408l1.635-7.163
	l3.425-12.061l1.061-4.956L118.863,274.936" style="font-size:12px;fill-rule:nonzero;stroke:#000000;stroke-width:0.1;stroke-linecap:butt;stroke-linejoin:bevel;stroke-miterlimit:4;stroke-opacity:1;stroke-dasharray:none;marker-start:none;fill:#FFBA59">
 </path>
 <path id="065" inkscape:label="Riverside, CA" fill="#D0D0D0" stroke="#000000" stroke-width="0.1" stroke-linejoin="bevel" d="
	M182.554,258.953l-3.257,4.604l-1.015,1.757l-0.925,3.315l-0.197,1.408l-1.027,5.137l-1.411,4.909l-4.366,5.149l-7.192-1.444
	l-4.636-0.794l-17.877-3.503l-21.787-4.56l-7.563-1.713l-11.165-2.431l-7.694-1.68l-14.185-3.401l0.171-0.731l-3.775-3.365
	l-5.088-1.165l0.256-1.244l4.636-4.53l-1.727-2.396l-2.013-0.758l-1.048-2.816l-2.258-5.125l1.182-2.146l4.438-3.841l5.016,1.143
	l1.366,0.317l0.302,0.726l4.635,1.733l10.334,2.299l4.53,0.17l8.801,1.546l25.517,5.395l17.785,3.768l2.484-0.813l4.574,0.223
	L182.554,258.953" style="font-size:12px;fill-rule:nonzero;stroke:#000000;stroke-width:0.1;stroke-linecap:butt;stroke-linejoin:bevel;stroke-miterlimit:4;stroke-opacity:1;stroke-dasharray:none;marker-start:none;fill:#FF7F40">
 </path>
 <path id="073" inkscape:label="San Diego, CA" fill="#D0D0D0" stroke="#000000" stroke-width="0.1" stroke-linejoin="bevel" d="
	M69.563,260.452l5.088,1.166l3.775,3.364l-0.171,0.732l14.185,3.401l7.694,1.68l11.165,2.43l7.563,1.713l-2.002,10.029l-1.064,4.957
	l-3.421,12.063l-1.635,7.163l-3.394-0.413l-6.907-0.828l-7.031-0.817l-9.925-1.172l-9.529-1.165l-0.21-0.017l-1.654-7.222
	l0.67-10.715v-0.361h0.013l0.03-2.337l0.017-0.909l-0.424-3.713l-0.181-1.313l-0.695-2.067l-0.065-0.181l-1.954-4.925l-0.574-1.378
	l-0.105-0.211l-0.788-1.664l-1.168-1.681l-0.71-0.769l-0.773-0.519L69.563,260.452" style="font-size:12px;fill-rule:nonzero;stroke:#000000;stroke-width:0.1;stroke-linecap:butt;stroke-linejoin:bevel;stroke-miterlimit:4;stroke-opacity:1;stroke-dasharray:none;marker-start:none;fill:#FFBA59">
 </path>
 <path id="059" inkscape:label="Orange, CA" fill="#D0D0D0" stroke="#000000" stroke-width="0.1" stroke-linejoin="bevel" d="
	M64.337,239.499l3.073,4.084l2.258,5.128l1.048,2.816l2.013,0.755l1.727,2.396l-4.636,4.534l-0.256,1.243l-4.182,4.314l-0.23-0.919
	l-0.604-1.222l-0.378-0.552l-6.654-8.344l-5.344-6.547l-1.308-1.608l0.927-1.635l1.937-2.442l3.821-3.285l1.621,0.104l0.408,0.089
	L64.337,239.499" style="font-size:12px;fill-rule:nonzero;stroke:#000000;stroke-width:0.1;stroke-linecap:butt;stroke-linejoin:bevel;stroke-miterlimit:4;stroke-opacity:1;stroke-dasharray:none;marker-start:none;fill:#FFBA59">
 </path>
 <path id="037" inkscape:label="Los Angeles, CA" fill="#D0D0D0" stroke="#000000" stroke-width="0.1" stroke-linejoin="bevel" d="
	M32.974,282.521l-2.698-0.104l-1.71-2.107l-0.227-0.358l-0.833-2.651l-0.758-4.74l0.955,0.324l4.968,8.66l0.41,0.88L32.974,282.521
	 M31.143,253.011l-0.154-0.108l-0.03-0.312l0.03-0.065l0.167,0.046l1.853,0.624l2.074,1.667l1.681,1.347l1.273,1.073l1.635,3.398
	l0.135,0.347l0.092,0.726l-0.168,0.395l-0.498,0.292l-0.03,0.013h-0.289l-4.363-2.062l-0.289-0.255L31.143,253.011 M77.018,203.229
	l-2.307,9.996l-1.07,5.78l-0.808,4.907l-0.322,2.122l-2.327,5.042l-2.012,3.364l-0.805,1.33l-2.518,1.227l-0.906,1.107l-0.062,0.305
	l0.164,0.684l0.292,0.406l-4.759-1.09l-0.408-0.089l-1.621-0.104l-3.821,3.285l-1.937,2.442l-0.927,1.635l-2.694,0.361l-2.833-0.059
	l-1.307-0.516l-0.649-0.364l-2.528-1.632l-0.453-0.377l-0.276-1.53l0.257-0.27l0.82-0.61l0.423-0.092l0.213-0.436l0.223-1.094
	l-0.269-2l-0.167-0.971l-0.088-0.542l-0.198-1.126l-0.347-1.362l-0.489-1.316l-0.043-0.095L40.4,231.41l-0.019-0.025l-0.375-0.742
	l-0.079-0.104l-0.285-0.408l-0.095-0.137l-0.105-0.089l-0.607-0.581l-0.876-0.346l-3.469-0.729l-2.729-0.364l-1.437,0.122
	l-5.365-2.381l0.453-1.214l3.458-1.493l2.787-1.173l4.182,1.037l2.12-3.384l0.23-1.586l-3.29-23.199l-0.151-1.253L77.018,203.229" style="font-size:12px;fill-rule:nonzero;stroke:#000000;stroke-width:0.1;stroke-linecap:butt;stroke-linejoin:bevel;stroke-miterlimit:4;stroke-opacity:1;stroke-dasharray:none;marker-start:none;fill:#FFBA59">
 </path>
 <path id="111" inkscape:label="Ventura, CA" fill="#D0D0D0" stroke="#000000" stroke-width="0.1" stroke-linejoin="bevel" d="
	M16.823,185.141l2.001,0.726l3.438,1.608l0.47,1.123l0.164,1.178l8.745,4.032l3.257,0.801l3.29,23.198l-0.23,1.583l-2.12,3.388
	l-4.182-1.037l-2.787,1.171l-3.458,1.494l-0.453,1.215l-4.756-3.592l-5.227-9.093l-3.577-4.6l-0.833-1.06l-0.441-0.196l1.002-0.696
	l0.29-0.257l0.664-2.123L16.823,185.141" style="font-size:12px;fill-rule:nonzero;stroke:#000000;stroke-width:0.1;stroke-linecap:butt;stroke-linejoin:bevel;stroke-miterlimit:4;stroke-opacity:1;stroke-dasharray:none;marker-start:none;fill:#FFBA59">
 </path>
 <path id="083" inkscape:label="Santa Barbara, CA" fill="#D0D0D0" stroke="#000000" stroke-width="0.1" stroke-linejoin="bevel" d="
	M-20.704,216.126l6.334,0.51l2.833,2.589l-0.094,1.444l-0.027,0.272l-0.151,0.047l-5.17,0.607l-0.467,0.026l-1.379-1.405
	l-0.259-0.453L-20.704,216.126 M-3.009,218.103l1.334,0.941l3.517,1.166l0.121-0.068l0.057-0.033l0.091-0.05l0.137-0.068
	l0.183-0.108l0.106-0.043l0.955,0.062l1.149,0.854l0.243,0.354l-0.015,0.017l-0.013,0.029l-0.033,0.032l-1.167,0.91l-0.334,0.272
	l-0.241,0.032l-5.954,0.105l-1.292-0.309l-1.256-0.496h-0.015l-0.469-0.232l-1.064-0.49l-0.951-0.698l-0.077-0.256l-0.696-3.939
	l0.242-0.306l0.211,0.063l1.866,0.741L-3.009,218.103 M-23.627,171.384l5.408,0.587l1.925,0.745l1.786,1.832l2.348-0.395
	l2.274-1.273l6.999-2.015l0.652,0.773l1.985,1.862l6.135,4.924l7.695,6.057l1.546,0.396h0.651l1.045,0.263L12.08,204l-0.664,2.124
	l-0.29,0.257l-1.002,0.694l-2.528-2.316l-1.909-0.831l-1.94-0.276l-0.527,0.015H3.143l-2.074-0.106l-4.367-1.371l-1.5-1.517
	l-2.561-1.848l-1.029-0.408l-2.666-0.988l-2.229-0.597l-2.592-0.545l-2.967-0.372l-3.53-0.613l-4.544-5.935l0.286-3.438
	l2.229-11.437L-23.627,171.384" style="font-size:12px;fill-rule:nonzero;stroke:#000000;stroke-width:0.1;stroke-linecap:butt;stroke-linejoin:bevel;stroke-miterlimit:4;stroke-opacity:1;stroke-dasharray:none;marker-start:none;fill:#FF7F40">
 </path>
 <path id="079" inkscape:label="San Luis Obispo, CA" fill="#D0D0D0" stroke="#000000" stroke-width="0.1" stroke-linejoin="bevel" d="
	M-37.975,130.428L0.174,140.87l0.665,0.182l-1.908,7.392l3.728,5.541l4.043,8.322l1.47,4.333l3.77,1.001l4.048,4.757l1.667,5.062
	l-1.88,7.418h-0.651l-1.546-0.396l-7.695-6.057l-6.135-4.924l-1.985-1.862l-0.652-0.773l-6.999,2.015l-2.274,1.273l-2.348,0.395
	l-1.786-1.832l-1.925-0.745l-5.408-0.587l0.574-1.051l0.045-0.069l0.545-1.211l0.44-1.166l0.208-0.716l0.156-0.725l0.042-0.2
	l0.018-0.083l0.074-0.958v-0.052l-0.104-0.696l-0.151-0.414l-0.316-0.328l-1.049-1.076l-0.151-0.139l-0.302-0.207l-3.137-8.544
	l-5.802-10.701l-3.817-5.91l-0.592-0.616l-0.347-0.425l-0.547-1.923L-37.975,130.428" style="font-size:12px;fill-rule:nonzero;stroke:#000000;stroke-width:0.1;stroke-linecap:butt;stroke-linejoin:bevel;stroke-miterlimit:4;stroke-opacity:1;stroke-dasharray:none;marker-start:none;fill:#FFBA59">
 </path>
 <path id="029" inkscape:label="Kern, CA" fill="#D0D0D0" stroke="#000000" stroke-width="0.1" stroke-linejoin="bevel" d="
	M23.047,146.733l16.44,4.073l18.619,4.577l14.848,3.466l2.002,0.578l12.833,2.64l-1.412,3.587l-0.328,1.241L85.593,172
	l-7.362,31.527l-1.213-0.299l-42.271-9.874l0.151,1.251l-3.257-0.798l-8.745-4.032l-0.164-1.178l-0.47-1.123l-3.438-1.608
	l-2.001-0.726l-1.045-0.263l1.88-7.418l-1.667-5.062l-4.048-4.757l-3.77-1.001l-1.47-4.333l-4.043-8.322l-3.728-5.541l1.908-7.392
	L23.047,146.733" style="font-size:12px;fill-rule:nonzero;stroke:#000000;stroke-width:0.1;stroke-linecap:butt;stroke-linejoin:bevel;stroke-miterlimit:4;stroke-opacity:1;stroke-dasharray:none;marker-start:none;fill:#9C2423">
 </path>
 <path id="071" inkscape:label="San Bernardino, CA" fill="#D0D0D0" stroke="#000000" stroke-width="0.1" stroke-linejoin="bevel" d="
	M87.789,162.067l8.741,2.101l55.921,12.362l3.181-0.013l6.953,10.438l2.396,3.571l0.89,1.323l12.852,19.228l4.74,7.057l-1.09,4.823
	l-0.062,0.606l0.032,0.228l1.91,4.973l2.41,3.781l0.118,1.747l2.239,9.428l2.212,2.648l1.927,2.144l1.668,2.916l-0.121,1.884
	l-0.08,0.06l-4.542,2.623l-3.062,1.257l-4.469,1.71l-24.18-4.848l-4.574-0.224l-2.484,0.813l-17.785-3.769l-25.517-5.39l-8.801-1.55
	l-4.53-0.171l-10.334-2.298l-4.635-1.732l-0.302-0.726l-1.366-0.319l-5.016-1.138l-4.438,3.837l-1.182,2.147l-3.073-4.088
	l-0.292-0.403l-0.164-0.684l0.062-0.309l0.906-1.103l2.518-1.228l0.805-1.333l2.012-3.364l2.327-5.043l0.322-2.12l0.808-4.908
	l1.07-5.777l2.307-9.998l1.213,0.302l7.362-31.527l0.456-5.107l0.328-1.241L87.789,162.067" style="font-size:12px;fill-rule:nonzero;stroke:#000000;stroke-width:0.1;stroke-linecap:butt;stroke-linejoin:bevel;stroke-miterlimit:4;stroke-opacity:1;stroke-dasharray:none;marker-start:none;fill:#9C2423">
 </path>
 <path id="027" inkscape:label="Inyo, CA" fill="#D0D0D0" stroke="#000000" stroke-width="0.1" stroke-linejoin="bevel" d="
	M66.258,82.159l31.333,7.412l17.424,26.164l0.651,0.965l3.709,5.519l2.17,3.285l11.44,17.123l9.271,13.922l1.194,1.789l4.971,7.452
	l0.394,0.577l6.817,10.15l-3.181,0.013L96.53,164.168l-8.741-2.101l-12.833-2.64l1.652-3.602l0.574-2.031l-0.151-2.863
	l-0.968-14.106l-2.531-14.348l-0.817-6.467l0.985-4.271l0.285-2.335l-0.089-1.641l-0.564-5.312l-0.44-0.898l-2.557-2.771
	l-0.667-0.06l-2.619-1.848l-0.108-0.104l-0.285-0.641l-1.701-8.529l0.093-2.633L66.258,82.159" style="font-size:12px;fill-rule:nonzero;stroke:#000000;stroke-width:0.1;stroke-linecap:butt;stroke-linejoin:bevel;stroke-miterlimit:4;stroke-opacity:1;stroke-dasharray:none;marker-start:none;fill:#9C2423">
 </path>
 <path id="107" inkscape:label="Tulare, CA" fill="#D0D0D0" stroke="#000000" stroke-width="0.1" stroke-linejoin="bevel" d="
	M72.715,116.004l0.817,6.468l2.531,14.352l0.968,14.105l0.151,2.866l-0.574,2.028l-1.652,3.604l-2.002-0.578l-14.848-3.474
	l-18.619-4.572l-16.44-4.074l3.595-14.014l1.681-5.656l1.105-0.295l0.88,0.206l1.405-5.586l-0.864-4.182l-1.5-0.378l4.517-2.745
	l6.319-2.259l4.333,1.153l6.344,1.65l0.972-3.562l14.891,3.503L72.715,116.004" style="font-size:12px;fill-rule:nonzero;stroke:#000000;stroke-width:0.1;stroke-linecap:butt;stroke-linejoin:bevel;stroke-miterlimit:4;stroke-opacity:1;stroke-dasharray:none;marker-start:none;fill:#FF7F40">
 </path>
 <path id="031" inkscape:label="Kings, CA" fill="#D0D0D0" stroke="#000000" stroke-width="0.1" stroke-linejoin="bevel" d="
	M29.351,116.825l1.5,0.38l0.864,4.183l-1.405,5.587l-0.88-0.21l-1.105,0.303l-1.681,5.652l-3.595,14.014l-22.208-5.682l-0.665-0.182
	l-2.108-5.863l14.999-8.484l2.351-9.284l5.167,1.268l4.875,0.502L29.351,116.825" style="font-size:12px;fill-rule:nonzero;stroke:#000000;stroke-width:0.1;stroke-linecap:butt;stroke-linejoin:bevel;stroke-miterlimit:4;stroke-opacity:1;stroke-dasharray:none;marker-start:none;fill:#9C2423">
 </path>
 <path id="039" inkscape:label="Madera, CA" fill="#D0D0D0" stroke="#000000" stroke-width="0.1" stroke-linejoin="bevel" d="
	M52.806,66.402l2.515,0.683l2.123,0.683l0.466,0.562l1.048,2.091l0.396,4.517l-10.58,6.513l-1.5,0.985l-0.634,0.623L46.23,83.86
	l-0.289,1.937l-0.029,0.745l-0.076,0.286l-0.696,1.621l-0.5,0.545l-0.955,0.85l-1.034,0.572l-4.924-0.318l-1.435,0.229l-5.518,3.439
	l-1.484,0.985l-0.349,0.285l-2.376,2.652l-0.578,0.955l-0.86,0.847l-0.125,0.034l-14.56-0.474l-2.075-0.394l-2.393-1.939
	l-1.303-2.117l-0.35-0.821l-0.166-0.545L4.037,92.42l-0.955-7.44l2.755-1.639l6.576-0.67l5.137,0.69h3.35l12.162-7.426l3.667,0.893
	l3.013-2.698l0.759-2.754l11.394-6.943L52.806,66.402" style="font-size:12px;fill-rule:nonzero;stroke:#000000;stroke-width:0.1;stroke-linecap:butt;stroke-linejoin:bevel;stroke-miterlimit:4;stroke-opacity:1;stroke-dasharray:none;marker-start:none;fill:#9C2423">
 </path>
 <path id="019" inkscape:label="Fresno, CA" fill="#D0D0D0" stroke="#000000" stroke-width="0.1" stroke-linejoin="bevel" d="
	M66.258,82.159l-1.211,2.807l-0.093,2.63l1.701,8.535l0.285,0.636l0.108,0.106l2.619,1.848l0.667,0.062l2.557,2.771l0.44,0.896
	l0.564,5.314l0.089,1.641l-0.285,2.332l-0.985,4.267l-5.988-1.431l-14.891-3.506l-0.972,3.558l-6.344-1.647l-4.333-1.156
	l-6.319,2.262l-4.517,2.742l-3.894,2.183l-4.875-0.502l-5.167-1.268l-2.351,9.284l-14.999,8.484l-6.864-8.393l-2.134-3.073
	l-0.151-2.449l0.924-4.522l1.723-1.865l3.262-6.789l-7.682-13.448l15.938-9.487l0.955,7.44l0.121,0.815l0.166,0.545l0.35,0.821
	l1.303,2.117l2.393,1.939l2.075,0.394l14.56,0.474l0.125-0.034l0.86-0.847l0.578-0.955l2.376-2.652l0.349-0.285l1.484-0.985
	l5.518-3.439l1.435-0.229l4.924,0.318l1.034-0.572l0.955-0.85l0.5-0.545l0.696-1.621l0.076-0.286l0.029-0.745l0.289-1.937
	l0.411-0.805l0.634-0.624l1.5-0.984l10.58-6.517L66.258,82.159" style="font-size:12px;fill-rule:nonzero;stroke:#000000;stroke-width:0.1;stroke-linecap:butt;stroke-linejoin:bevel;stroke-miterlimit:4;stroke-opacity:1;stroke-dasharray:none;marker-start:none;fill:#F5E976">
 </path>
 <path id="053" inkscape:label="Monterey, CA" fill="#D0D0D0" stroke="#000000" stroke-width="0.1" stroke-linejoin="bevel" d="
	M-35.202,81.417l-0.184,0.881l0.35,1.332l2.789,4.635l3.164,5.695l2.864,7.771l4.562,9.205l2.073,2.528l6.379,5.376l0.923,0.361
	l0.184-0.013l0.255-0.151l1.685-2.468l-0.924,4.522l0.151,2.449l2.134,3.073l6.864,8.393l2.108,5.863l-38.149-10.442l-1.076-1.572
	l-1.788-3.306l0.061-1.605l0.042-0.771l0.077-1.412l-0.197-1.241l-0.032-0.184l-4.013-8.6l-0.895-1.576l-1.725-1.944l-0.487-0.436
	h-0.014l-0.335-0.05l-0.212-0.118l-0.332-0.419l-0.212-0.474l-0.852-1.971l-0.302-0.711l-0.03-0.683l1.109-11.026l2.423-0.861
	l0.074,0.026l0.548,0.013l0.42-0.184l0.836-0.616l0.514-0.532l0.377-0.452l0.653-0.988l0.622-1.238l1.667-3.607l0.03-0.502
	l-0.195-1.576l-0.017-0.105L-35.202,81.417" style="font-size:12px;fill-rule:nonzero;stroke:#000000;stroke-width:0.1;stroke-linecap:butt;stroke-linejoin:bevel;stroke-miterlimit:4;stroke-opacity:1;stroke-dasharray:none;marker-start:none;fill:#FF7F40">
 </path>
 <path id="069" inkscape:label="San Benito, CA" fill="#D0D0D0" stroke="#000000" stroke-width="0.1" stroke-linejoin="bevel" d="
	M-35.202,81.417l2.148,0.306l3.019-1.697l3.089,0.657l6.74,1.809l-0.696,0.725l-0.242,0.339l-0.09,0.239l0.229,0.624l1.832,3.985
	l5.953,5.442l0.366,0.623l7.682,13.449l-3.262,6.789l-1.723,1.862l-1.685,2.471l-0.255,0.154l-0.184,0.014l-0.923-0.364
	l-6.379-5.374l-2.073-2.534l-4.562-9.198l-2.864-7.773l-3.164-5.699l-2.789-4.628l-0.35-1.336L-35.202,81.417" style="font-size:12px;fill-rule:nonzero;stroke:#000000;stroke-width:0.1;stroke-linecap:butt;stroke-linejoin:bevel;stroke-miterlimit:4;stroke-opacity:1;stroke-dasharray:none;marker-start:none;fill:#FF7F40">
 </path>
 <path id="047" inkscape:label="Merced, CA" fill="#D0D0D0" stroke="#000000" stroke-width="0.1" stroke-linejoin="bevel" d="
	M14.745,61.436l1.639,8.349l-0.014,0.637l-0.03,0.121l-0.151,0.151l1.378,8.226l0.891,1.268l2.442,3.175h-3.35l-5.137-0.69
	l-6.576,0.67l-2.755,1.639l-15.938,9.487l-0.366-0.627l-5.953-5.442l-1.832-3.982l-0.229-0.621l0.09-0.243l0.242-0.335l0.696-0.729
	l-0.467-0.482l-0.259-0.574l-0.03-0.243l0.484-1.697l0.864-0.394l0.713-1.119l0.483-2.338l-0.182-0.571l11.09-6.545l0.06-1.425
	l-0.195-0.427L-7.9,66.521l4.924-1.455L14.745,61.436" style="font-size:12px;fill-rule:nonzero;stroke:#000000;stroke-width:0.1;stroke-linecap:butt;stroke-linejoin:bevel;stroke-miterlimit:4;stroke-opacity:1;stroke-dasharray:none;marker-start:none;fill:#9C2423">
 </path>
 <path id="087" inkscape:label="Santa Cruz, CA" fill="#D0D0D0" stroke="#000000" stroke-width="0.1" stroke-linejoin="bevel" d="
	M-47.401,60.225l-0.013,0.479l0.074,0.243l0.91,1.914l1.771,3.587l0.865,1.241l2.32,2.035l1.451,1.044l2.924,3.093l4.044,6.689
	l0.228,0.381l-0.228,0.791l-2.148-0.306l-6.031,0.289l-0.241-1.365l-0.532-2.511l-0.379-0.939l-0.333-0.64l-0.302-0.408l-0.683-0.61
	l-0.32-0.068l-1.697,0.395l-1.517-0.08l-0.784-0.107l-0.548-0.139l-0.271-0.145l-0.108-0.065l-0.481-0.272l-0.366-0.213
	l-1.318-1.497l-1.305-1.878l-0.981-2.337l-0.82-2.465l-0.092-1.802l0.276-1.714l2.815-0.473l2.955,0.821l0.228-0.591L-47.401,60.225
	" style="font-size:12px;fill-rule:nonzero;stroke:#000000;stroke-width:0.1;stroke-linecap:butt;stroke-linejoin:bevel;stroke-miterlimit:4;stroke-opacity:1;stroke-dasharray:none;marker-start:none;fill:#FF7F40">
 </path>
 <path id="081" inkscape:label="San Mateo, CA" fill="#D0D0D0" stroke="#000000" stroke-width="0.1" stroke-linejoin="bevel" d="
	M-50.234,40.252l-0.061,0.02l-0.74,4.425l0.452,0.709l5.242,5.502l0.381,0.236l0.907,0.322l0.622-0.164l0.017-0.046l0.622,1.562
	l-4.609,7.406l-0.635,2.376l-0.228,0.591l-2.955-0.821l-2.815,0.473l-0.276,1.714l0.092,1.802l-0.272-0.44l-0.924-1.517
	l-1.244-2.321l-0.151-0.427l0.077-2.055l0.562-11.24l1.042-4.576l1.274-4.557L-50.234,40.252" style="font-size:12px;fill-rule:nonzero;stroke:#000000;stroke-width:0.1;stroke-linecap:butt;stroke-linejoin:bevel;stroke-miterlimit:4;stroke-opacity:1;stroke-dasharray:none;marker-start:none;fill:#F5E976">
 </path>
 <path id="001" inkscape:label="Alameda, CA" fill="#D0D0D0" stroke="#000000" stroke-width="0.1" stroke-linejoin="bevel" d="
	M-45.4,33.103l1.499,0.033l0.182,0.105l1.018,1.424l0.648,2.029l0.138,1.011l5.923,6.093l11.983-0.322l2.454-0.269l-1.361,4.911
	l-1.866,6.786l0.243,0.519l1.848,2.816l-0.031-0.032l-12.572-3.588l-0.41-0.046l-0.35,0.26l-0.26,0.121l-1.178,0.151l-0.605-0.079
	l-4.154-1.421l-0.542-0.785l-0.622-1.562l0.03-7.606l-2.622-7.605L-45.4,33.103" style="font-size:12px;fill-rule:nonzero;stroke:#000000;stroke-width:0.1;stroke-linecap:butt;stroke-linejoin:bevel;stroke-miterlimit:4;stroke-opacity:1;stroke-dasharray:none;marker-start:none;fill:#FFBA59">
 </path>
 <path id="085" inkscape:label="Santa Clara, CA" fill="#D0D0D0" stroke="#000000" stroke-width="0.1" stroke-linejoin="bevel" d="
	M-42.792,52.818l0.542,0.785l4.154,1.421l0.605,0.079l1.178-0.151l0.26-0.121l0.35-0.26l0.41,0.046l12.573,3.588l-0.531,0.213
	l-0.135,2.271l0.971,11.093l3.815,3.289l0.182,0.574l-0.483,2.334l-0.713,1.119l-0.864,0.395l-0.484,1.696l0.03,0.247l0.259,0.57
	l0.467,0.483l-6.74-1.809l-3.089-0.657l-3.019,1.697l0.228-0.791l-0.228-0.381l-4.044-6.689l-2.924-3.093l-1.451-1.044l-2.32-2.035
	l-0.865-1.241l-1.771-3.587l-0.91-1.914l-0.074-0.243l0.013-0.479L-42.792,52.818" style="font-size:12px;fill-rule:nonzero;stroke:#000000;stroke-width:0.1;stroke-linecap:butt;stroke-linejoin:bevel;stroke-miterlimit:4;stroke-opacity:1;stroke-dasharray:none;marker-start:none;fill:#F5E976">
 </path>
 <path id="099" inkscape:label="Stanislaus, CA" fill="#D0D0D0" stroke="#000000" stroke-width="0.1" stroke-linejoin="bevel" d="
	M2.037,37.981l6.168,12.73l6.559,10.708l-0.019,0.017L-2.976,65.07L-7.9,66.524l0.255,0.154l0.195,0.426l-0.06,1.419l-11.09,6.549
	l-3.815-3.289l-0.971-11.093l0.135-2.271l0.53-0.213l0.031,0.032l8.924-5.275l1.577-1.011l0.68-0.305l3.834-1.015l0.847,0.306
	l1.68,0.332l1.944,0.227l1.863-0.49l1.213-4.979L2.037,37.981" style="font-size:12px;fill-rule:nonzero;stroke:#000000;stroke-width:0.1;stroke-linecap:butt;stroke-linejoin:bevel;stroke-miterlimit:4;stroke-opacity:1;stroke-dasharray:none;marker-start:none;fill:#FF7F40">
 </path>
 <path id="043" inkscape:label="Mariposa, CA" fill="#D0D0D0" stroke="#000000" stroke-width="0.1" stroke-linejoin="bevel" d="
	M14.764,61.419l0.164-1.7l0.29-0.42l1.984-1.425l9.849-2.062l0.652,0.335l2.849,3.076l0.24,0.44l0.198,0.135l0.971,0.466
	l3.135,0.854l1.076-0.013l4.166-0.641l0.529-0.286l2.921-2.333l1.977-0.453l3.19,2.301l2.032,2.334l0.909,2.407l-11.394,6.943
	l-0.759,2.754l-3.013,2.698l-3.667-0.893L20.9,83.361l-2.442-3.175l-0.891-1.268l-1.378-8.226l0.151-0.151l0.03-0.121l0.014-0.637
	l-1.639-8.349L14.764,61.419" style="font-size:12px;fill-rule:nonzero;stroke:#000000;stroke-width:0.1;stroke-linecap:butt;stroke-linejoin:bevel;stroke-miterlimit:4;stroke-opacity:1;stroke-dasharray:none;marker-start:none;fill:#FF7F40">
 </path>
 <path id="109" inkscape:label="Tuolumne, CA" fill="#D0D0D0" stroke="#000000" stroke-width="0.1" stroke-linejoin="bevel" d="
	M46.913,38.434l-0.256,0.213l-0.368,1.277l-0.545,3.982l1.392,2.209l1.004,0.853l0.788,0.512l1.425,0.774l1.194,0.876l0.834,0.653
	l1.333,1.271l0.938,2.045l1.739,7.714l-1.178,3.814l-1.802,1.379l-0.607,0.394l-0.91-1.969l-0.909-2.407l-2.032-2.334l-3.19-2.301
	l-1.977,0.453l-2.921,2.333l-0.529,0.286l-4.166,0.641l-1.076,0.013l-3.135-0.854l-0.971-0.466l-0.198-0.135l-0.24-0.44
	l-2.849-3.076l-0.652-0.335l-9.849,2.062l-1.984,1.425l-0.29,0.42l-0.164,1.7L8.205,50.711l5.92-3.913l2.5-2.456l4.171-4.3
	l3.981-3.697l5.075-4.405l0.82-0.381l0.785-0.247l4.169-0.571l3.677,4.29l0.502-0.249l2.589-0.86l1.865-0.229l1.32,0.305l0.15,0.151
	l0.118,0.302L46.913,38.434" style="font-size:12px;fill-rule:nonzero;stroke:#000000;stroke-width:0.1;stroke-linecap:butt;stroke-linejoin:bevel;stroke-miterlimit:4;stroke-opacity:1;stroke-dasharray:none;marker-start:none;fill:#FFBA59">
 </path>
 <path id="051" inkscape:label="Mono, CA" fill="#D0D0D0" stroke="#000000" stroke-width="0.1" stroke-linejoin="bevel" d="
	M52.821,22.516l6.467,9.681l4.354,6.48l18.507,27.847l15.442,23.047l-31.333-7.412l-6.904-7.222l-0.396-4.517l-1.048-2.091
	l-0.466-0.562l-2.123-0.683l-2.515-0.683l0.607-0.394l1.802-1.379l1.178-3.814l-1.739-7.714l-0.938-2.045l-1.333-1.271l-0.834-0.653
	l-1.194-0.876l-1.425-0.774l-0.788-0.512l-1.004-0.853l-1.392-2.209l0.545-3.982l0.368-1.277l0.256-0.213l3.42-2.909l1.576-3.617
	l-1.362-5.033l0.045-0.44l0.793-2.032L52.821,22.516" style="font-size:12px;fill-rule:nonzero;stroke:#000000;stroke-width:0.1;stroke-linecap:butt;stroke-linejoin:bevel;stroke-miterlimit:4;stroke-opacity:1;stroke-dasharray:none;marker-start:none;fill:#FF7F40">
 </path>
 <path id="003" inkscape:label="Alpine, CA" fill="#D0D0D0" stroke="#000000" stroke-width="0.1" stroke-linejoin="bevel" d="
	M44.838,10.544l7.983,11.972l-1.437,1.887l-0.793,2.032l-0.045,0.44l1.362,5.033l-1.576,3.617l-3.42,2.909l-1.064-3.982L45.73,34.15
	l-0.15-0.151l-1.32-0.305l-1.865,0.229l-2.589,0.86l-0.502,0.249l-3.677-4.29l-0.879-3.687l2.104-8.165l4.471-2.226l0.83-0.604
	l2.711-2.413l0.171-0.26l0.226-1.207l-0.047-0.831L44.838,10.544" style="font-size:12px;fill-rule:nonzero;stroke:#000000;stroke-width:0.1;stroke-linecap:butt;stroke-linejoin:bevel;stroke-miterlimit:4;stroke-opacity:1;stroke-dasharray:none;marker-start:none;fill:#FF7F40">
 </path>
 <path id="009" inkscape:label="Calaveras, CA" fill="#D0D0D0" stroke="#000000" stroke-width="0.1" stroke-linejoin="bevel" d="
	M35.626,30.743l-4.169,0.571l-0.785,0.247l-0.82,0.381l-5.075,4.405l-3.981,3.697l-4.171,4.3l-2.5,2.456l-5.92,3.913l-6.168-12.73
	L1.462,31.12l0.224,0.256l0.424,0.26l2.639,0.561l8.013-2.531l6.062-2.669l1.578-0.817l1.467,0.088l12.878,0.788L35.626,30.743" style="font-size:12px;fill-rule:nonzero;stroke:#000000;stroke-width:0.1;stroke-linecap:butt;stroke-linejoin:bevel;stroke-miterlimit:4;stroke-opacity:1;stroke-dasharray:none;marker-start:none;fill:#FFBA59">
 </path>
 <path id="005" inkscape:label="Amador, CA" fill="#D0D0D0" stroke="#000000" stroke-width="0.1" stroke-linejoin="bevel" d="
	M36.852,18.892l-2.104,8.165l-12.878-0.788l-1.467-0.088l-1.578,0.817l-6.062,2.669L4.75,32.197l-2.639-0.561l-0.424-0.26
	L1.462,31.12L1.28,27.801l2.348-8.88l3.134,0.365l9.817,3.318l1.502,0.381l2.407,0.276l6.637,0.295l1.881-0.295L36.852,18.892" style="font-size:12px;fill-rule:nonzero;stroke:#000000;stroke-width:0.1;stroke-linecap:butt;stroke-linejoin:bevel;stroke-miterlimit:4;stroke-opacity:1;stroke-dasharray:none;marker-start:none;fill:#FFBA59">
 </path>
 <path id="077" inkscape:label="San Joaquin, CA" fill="#D0D0D0" stroke="#000000" stroke-width="0.1" stroke-linejoin="bevel" d="
	M1.462,31.12l0.575,6.861l-2.165,8.046l-1.213,4.979l-1.863,0.49l-1.944-0.227l-1.68-0.332l-0.847-0.306l-3.834,1.015l-0.68,0.305
	l-1.577,1.011l-8.924,5.275l-1.848-2.816l-0.243-0.519l1.866-6.786l1.361-4.911l2.38-11.755l1.468-1.908l3.654-3.866h0.77
	l0.592,0.249l0.408,0.936l0.624,0.591l1.635,0.407l5.999,0.699l0.229-0.03l2.333-0.804l2.742,0.076L1.462,31.12" style="font-size:12px;fill-rule:nonzero;stroke:#000000;stroke-width:0.1;stroke-linecap:butt;stroke-linejoin:bevel;stroke-miterlimit:4;stroke-opacity:1;stroke-dasharray:none;marker-start:none;fill:#FFBA59">
 </path>
 <path id="013" inkscape:label="Contra Costa, CA" fill="#D0D0D0" stroke="#000000" stroke-width="0.1" stroke-linejoin="bevel" d="
	M-41.945,26.603l2.924,1.772l1.681,0.486l7.149,1.74l0.485,0.049l0.44-0.03l0.305-0.196l0.272-0.334l0.696,1.91l0.303,0.407
	l0.85,0.348l0.376,0.089l1.318,0.029l1.486-0.42l0.805-0.506l0.164-0.299l0.094-0.607l0.166-0.269l0.241-0.122h0.376l1.927,0.345
	l0.605,0.318l0.108,0.138l-2.38,11.755l-2.454,0.269l-11.983,0.322l-5.923-6.093l-0.138-1.011l-0.648-2.029l-1.018-1.424
	l-0.182-0.105l-1.499-0.033l-1.302-0.952l-1.244-2.836l4.304-0.939l0.712-0.334l0.924-0.726l0.091-0.289L-41.945,26.603" style="font-size:12px;fill-rule:nonzero;stroke:#000000;stroke-width:0.1;stroke-linecap:butt;stroke-linejoin:bevel;stroke-miterlimit:4;stroke-opacity:1;stroke-dasharray:none;marker-start:none;fill:#F5E976">
 </path>
 <path id="017" inkscape:label="El Dorado, CA" fill="#D0D0D0" stroke="#000000" stroke-width="0.1" stroke-linejoin="bevel" d="
	M43.124,4.044l1.714,6.5l0.377,0.808l0.047,0.831l-0.226,1.207l-0.171,0.26l-2.711,2.413l-0.83,0.604l-4.471,2.226l-7.846,4.37
	l-1.881,0.295l-6.637-0.295l-2.407-0.276l-1.502-0.381l-9.817-3.318l-3.134-0.365L2.265,9.316l4.134-4.938l0.924-2.015l0.714-0.591
	l3.574-1.018l4.561-0.742l1.456,0.079l0.228,0.092l0.786,0.463l1.045,1.08l0.376,0.847l0.277,0.459l0.469,0.542l1.999,1.983
	l0.411,0.247h0.27l1.621-0.309l0.805-0.358l1.789-1.5l7.229,0.272l1.907,0.167l0.696-0.167l0.47-0.2l0.139-0.512l0.406-0.318
	L43.124,4.044" style="font-size:12px;fill-rule:nonzero;stroke:#000000;stroke-width:0.1;stroke-linecap:butt;stroke-linejoin:bevel;stroke-miterlimit:4;stroke-opacity:1;stroke-dasharray:none;marker-start:none;fill:#F5E976">
 </path>
 <path id="067" inkscape:label="Sacramento, CA" fill="#D0D0D0" stroke="#000000" stroke-width="0.1" stroke-linejoin="bevel" d="
	M-8.599,5.338L2.265,9.316l1.362,9.605l-2.348,8.88l-2.742-0.076l-2.333,0.804l-0.229,0.03l-5.999-0.699l-1.635-0.404l-0.624-0.594
	l-0.408-0.936l-0.592-0.249h-0.77l-3.654,3.866l-1.468,1.908l-0.108-0.138l-0.605-0.318l-1.927-0.345h-0.376l-0.241,0.122
	l-0.166,0.269l-0.094,0.607l-0.164,0.299l-0.805,0.506l-1.486,0.42l-1.318-0.029l-0.376-0.089l-0.85-0.348L-27.992,32l-0.696-1.91
	l1.97,0.83l3.223-0.318l3.712-3.821l2.774-4.658l2.212-0.955l0.655-0.394l1.65-3.411l1.47-5.984l0.045-0.453l-0.045-0.198
	l-1.261-2.229l-0.135-4.271L-8.599,5.338" style="font-size:12px;fill-rule:nonzero;stroke:#000000;stroke-width:0.1;stroke-linecap:butt;stroke-linejoin:bevel;stroke-miterlimit:4;stroke-opacity:1;stroke-dasharray:none;marker-start:none;fill:#FFBA59">
 </path>
 <path id="095" inkscape:label="Solano, CA" fill="#D0D0D0" stroke="#000000" stroke-width="0.1" stroke-linejoin="bevel" d="
	M-45.37,21.305l6.88,1.983l0.147-0.395l-0.074-0.197l-0.119-0.016l-0.183-0.253l-0.121-0.354l0.092-0.377l1.832-5.256l4.591,1.284
	l0.151-0.361l0.047-0.378l0.044-0.774l-0.031-0.361l-0.151-0.984l-0.742-2.245l0.014-0.21l0.06-0.286l1.53-2.879l0.167-0.184
	l1.53,0.256l11.469,2.288l0.351,0.579v0.134l-0.365,1.546l-2.059,7.317l3.301,0.942l-2.774,4.658l-3.712,3.821l-3.223,0.318
	l-1.97-0.83l-0.272,0.334l-0.305,0.196l-0.44,0.03l-0.485-0.049l-7.149-1.74l-1.681-0.486l-2.924-1.772l-3.365-5.045L-45.37,21.305" style="font-size:12px;fill-rule:nonzero;stroke:#000000;stroke-width:0.1;stroke-linecap:butt;stroke-linejoin:bevel;stroke-miterlimit:4;stroke-opacity:1;stroke-dasharray:none;marker-start:none;fill:#FF7F40">
 </path>
 <path id="075" inkscape:label="San Franciso, CA" fill="#D0D0D0" stroke="#000000" stroke-width="0.1" stroke-linejoin="bevel" d="
	M-50.234,40.252l-3.621-1.024v-0.033l0.044-0.669l0.427-2.469l0.392-0.227l1.562-0.305l1.303,0.092l0.622,0.151l0.228,0.338
	l0.24,0.738l-0.195,2.59l-0.195,0.624L-50.234,40.252" style="font-size:12px;fill-rule:nonzero;stroke:#000000;stroke-width:0.1;stroke-linecap:butt;stroke-linejoin:bevel;stroke-miterlimit:4;stroke-opacity:1;stroke-dasharray:none;marker-start:none;fill:#FF7F40">
 </path>
 <path id="041" inkscape:label="Marin, CA" fill="#D0D0D0" stroke="#000000" stroke-width="0.1" stroke-linejoin="bevel" d="
	M-63.051,9.789l0.408-0.217l2.745,0.065l0.271,0.072l7.168,8.528l3.802,4.245l-1.21,3.151l-1.257,3.985l-0.093,0.335l0.228,0.358
	l0.561,0.696l0.562,0.933l0.195,0.482l-0.015,0.135l-1.999,1.95l-0.894-0.102l-0.562-0.289l-0.379-0.364l-10.68-12.254l1.771-9.438
	l-0.104-0.808l-0.379-1.103L-63.051,9.789" style="font-size:12px;fill-rule:nonzero;stroke:#000000;stroke-width:0.1;stroke-linecap:butt;stroke-linejoin:bevel;stroke-miterlimit:4;stroke-opacity:1;stroke-dasharray:none;marker-start:none;fill:#DFDDDD">
 </path>
 <path id="055" inkscape:label="Napa, CA" fill="#D0D0D0" stroke="#000000" stroke-width="0.1" stroke-linejoin="bevel" d="
	M-36.489-8.364l3.166,2.002l1.665,8.86L-31.266,5l0.047,0.896l-0.017,3.164l-0.167,0.184l-1.53,2.879l-0.06,0.286l-0.014,0.21
	l0.742,2.245l0.151,0.984l0.031,0.361l-0.044,0.774l-0.047,0.378l-0.151,0.361l-4.591-1.284l-1.832,5.256l-0.092,0.377l0.121,0.354
	l0.183,0.253l0.119,0.016l0.074,0.197l-0.147,0.395l-6.88-1.983l1.318,0.24l1.045-1.697l0.077-0.998l-0.031-1.018l-0.409-3.499
	l-2.32-8.21l-1.333-3.654l0.109-2.849l0.558-1.865l5.741-0.069l3.882-3.292l0.378-0.575L-36.489-8.364" style="font-size:12px;fill-rule:nonzero;stroke:#000000;stroke-width:0.1;stroke-linecap:butt;stroke-linejoin:bevel;stroke-miterlimit:4;stroke-opacity:1;stroke-dasharray:none;marker-start:none;fill:#FFBA59">
 </path>
 <path id="097" inkscape:label="Sonoma, CA" fill="#D0D0D0" stroke="#000000" stroke-width="0.1" stroke-linejoin="bevel" d="
	M-74.322-15.028l1.304-0.079l4.484,0.046l9.815,0.801l8.32,2.528l4.044,9.487l-0.558,1.865l-0.109,2.849l1.333,3.654l2.32,8.21
	l0.409,3.499l0.031,1.018l-0.077,0.998l-1.045,1.697l-1.318-0.24l0.06,0.253l-3.348,0.926l-3.802-4.245l-7.168-8.528l-0.271-0.072
	l-2.745-0.065l-0.408,0.217l-2.148-7.642l-7.015-13.419L-74.322-15.028" style="font-size:12px;fill-rule:nonzero;stroke:#000000;stroke-width:0.1;stroke-linecap:butt;stroke-linejoin:bevel;stroke-miterlimit:4;stroke-opacity:1;stroke-dasharray:none;marker-start:none;fill:#FFBA59">
 </path>
 <path id="113" inkscape:label="Yolo, CA" fill="#D0D0D0" stroke="#000000" stroke-width="0.1" stroke-linejoin="bevel" d="
	M-34.005-10.38l16.27,4.557l5.318,10.051l0.135,4.271l1.261,2.229l0.045,0.198l-0.045,0.453l-1.47,5.984l-1.65,3.411l-0.655,0.394
	l-2.212,0.955l-3.301-0.942l2.059-7.317l0.365-1.546v-0.134l-0.351-0.579l-11.469-2.288l-1.53-0.256l0.017-3.164L-31.266,5
	l-0.392-2.502l-1.665-8.86l-3.166-2.002L-34.005-10.38" style="font-size:12px;fill-rule:nonzero;stroke:#000000;stroke-width:0.1;stroke-linecap:butt;stroke-linejoin:bevel;stroke-miterlimit:4;stroke-opacity:1;stroke-dasharray:none;marker-start:none;fill:#FF7F40">
 </path>
 <path id="061" inkscape:label="Placer, CA" fill="#D0D0D0" stroke="#000000" stroke-width="0.1" stroke-linejoin="bevel" d="
	M-3.325-5.104l4.8-0.394l1.607,1.375l0.35,0.167l4.545,1.53l1.088-0.181l2.091-2.075l0.289-0.423l0.256-0.667l0.289-0.305
	l1.577-1.185l1.577-0.814l2.393-1.195l4.589-2.137l1.713-0.394l1.258-0.056L45.744-6.5l-1.619,6.375l-0.545,2.259l-0.457,1.911
	l-4.576-1.166l-0.406,0.318l-0.139,0.512l-0.47,0.2l-0.696,0.167L34.931,3.91l-7.229-0.272l-1.789,1.5l-0.805,0.358l-1.621,0.309
	h-0.27l-0.411-0.247l-1.999-1.983L20.34,3.033l-0.277-0.459l-0.376-0.847l-1.045-1.08l-0.786-0.463l-0.228-0.092l-1.456-0.079
	l-4.561,0.742L8.037,1.773L7.323,2.364L6.399,4.379L2.265,9.316L-8.599,5.338l2.697-7.944l1.787,0.469L-3.325-5.104" style="font-size:12px;fill-rule:nonzero;stroke:#000000;stroke-width:0.1;stroke-linecap:butt;stroke-linejoin:bevel;stroke-miterlimit:4;stroke-opacity:1;stroke-dasharray:none;marker-start:none;fill:#F5E976">
 </path>
 <path id="057" inkscape:label="Nevada, CA" fill="#D0D0D0" stroke="#000000" stroke-width="0.1" stroke-linejoin="bevel" d="
	M47.215-11.939L45.744-6.5l-20.648-5.357l-1.258,0.056l-1.713,0.394l-4.589,2.137l-2.393,1.195l-1.577,0.814L11.99-6.076
	l-0.289,0.305l-0.256,0.667l-0.289,0.423L9.065-2.606L7.977-2.426l-4.545-1.53l-0.35-0.167L1.475-5.499l2.259-8.272l0.878-1.396
	l2.955-2.048l2.771-1.454l1.804-0.194l0.791,0.118l0.908,0.44l0.453-0.528l0.756-0.194l5.458,0.433l4.271-1.061l0.108-0.131
	l0.483-0.414l1.152-0.557l0.516-0.076l2.393,0.772l0.684,0.85l0.243,2.042l0.708,0.834l0.428,0.243L47.215-11.939" style="font-size:12px;fill-rule:nonzero;stroke:#000000;stroke-width:0.1;stroke-linecap:butt;stroke-linejoin:bevel;stroke-miterlimit:4;stroke-opacity:1;stroke-dasharray:none;marker-start:none;fill:#FFBA59">
 </path>
 <path id="091" inkscape:label="Sierra, CA" fill="#D0D0D0" stroke="#000000" stroke-width="0.1" stroke-linejoin="bevel" d="
	M17.08-28.665l3.105-1.976l0.427-1.569l0.859-0.607l1.576-0.453l6.152,4.818l6.684,1.664l9.591,2.548l4.833,0.591l-3.092,11.709
	l-15.724-4.153l-0.428-0.243l-0.708-0.834l-0.243-2.042l-0.684-0.85l-2.393-0.772l-0.516,0.076l-1.152,0.557l-0.483,0.414
	l-0.108,0.131l-4.271,1.061l-5.458-0.433l-0.756,0.194l-0.453,0.528L17.08-28.665" style="font-size:12px;fill-rule:nonzero;stroke:#000000;stroke-width:0.1;stroke-linecap:butt;stroke-linejoin:bevel;stroke-miterlimit:4;stroke-opacity:1;stroke-dasharray:none;marker-start:none;fill:#FF7F40">
 </path>
 <path id="115" inkscape:label="Yuba, CA" fill="#D0D0D0" stroke="#000000" stroke-width="0.1" stroke-linejoin="bevel" d="
	M14.447-27.466l2.633-1.199l-3.24,10.36l-0.908-0.44l-0.791-0.118l-1.804,0.194l-2.771,1.454l-2.955,2.048l-0.878,1.396L1.475-5.499
	l-4.8,0.394L-4.75-5.547l-0.729,0.02l-2.27,0.315l-0.806,0.637l-0.468,0.499L-9.07-8.588l1.502-8.987l0.195-0.65l0.575-1.215
	l0.212-0.125l4.211,0.233l3.349-0.24l1.318-0.669L14.447-27.466" style="font-size:12px;fill-rule:nonzero;stroke:#000000;stroke-width:0.1;stroke-linecap:butt;stroke-linejoin:bevel;stroke-miterlimit:4;stroke-opacity:1;stroke-dasharray:none;marker-start:none;fill:#9C2423">
 </path>
 <path id="101" inkscape:label="Sutter, CA" fill="#D0D0D0" stroke="#000000" stroke-width="0.1" stroke-linejoin="bevel" d="
	M-6.585-19.565l-0.212,0.125l-0.575,1.215l-0.195,0.65L-9.07-8.588l0.047,4.511l0.468-0.499l0.806-0.637l2.27-0.315l0.729-0.02
	l1.425,0.443l-0.79,2.967l-1.787-0.469l-2.697,7.944l-3.818-1.11L-17.736-5.82l1.275-2.531l-1.151-5.15l-0.974-2l0.319-2.088
	l2.652-4.849L-6.585-19.565" style="font-size:12px;fill-rule:nonzero;stroke:#000000;stroke-width:0.1;stroke-linecap:butt;stroke-linejoin:bevel;stroke-miterlimit:4;stroke-opacity:1;stroke-dasharray:none;marker-start:none;fill:#FF7F40">
 </path>
 <path id="011" inkscape:label="Colusa, CA" fill="#D0D0D0" stroke="#000000" stroke-width="0.1" stroke-linejoin="bevel" d="
	M-14.082-25.631l-1.532,3.194l-2.652,4.849l-0.319,2.088l0.974,2l1.151,5.15l-1.275,2.528l-16.27-4.557l-1.607-1.91l-0.151-0.345
	l-1.152-4.396l0.12-3.043l-3.208-5.485l-1.167-1.169l-1.835-2.724l-0.272-1.307l0.664-1.123l1.335-1.444L-14.082-25.631" style="font-size:12px;fill-rule:nonzero;stroke:#000000;stroke-width:0.1;stroke-linecap:butt;stroke-linejoin:bevel;stroke-miterlimit:4;stroke-opacity:1;stroke-dasharray:none;marker-start:none;fill:#9C2423">
 </path>
 <path id="033" inkscape:label="Lake, CA" fill="#D0D0D0" stroke="#000000" stroke-width="0.1" stroke-linejoin="bevel" d="
	M-41.28-33.326l-1.335,1.444l-0.664,1.123l0.272,1.307l1.835,2.724l1.167,1.169l3.21,5.485l-0.122,3.043l1.152,4.396l0.151,0.345
	l1.607,1.91l-2.484,2.016l0.135,2.183l-0.378,0.575l-3.882,3.292l-5.741,0.069l-4.044-9.487l-2.756-3.128l-0.834-1.336l-1.863-4.891
	l-0.562-2.485l0.074-0.364l0.182-0.62l0.743-1.744l0.742-1.398l1.439-0.44l1.408-1.572l0.289-1.815l-0.182-5.961l0.364-1.205
	l0.258-0.653l0.938-2.048l1.393-0.289l2.806,0.932l1.634-0.098l0.578-1.48l0.195-0.627l4.786,1.372l-1.104,4.284l-0.377,1.192
	L-41.28-33.326" style="font-size:12px;fill-rule:nonzero;stroke:#000000;stroke-width:0.1;stroke-linecap:butt;stroke-linejoin:bevel;stroke-miterlimit:4;stroke-opacity:1;stroke-dasharray:none;marker-start:none;fill:#9C2423">
 </path>
 <path id="007" inkscape:label="Butte, CA" fill="#D0D0D0" stroke="#000000" stroke-width="0.1" stroke-linejoin="bevel" d="
	M-14.203-44.451l-0.427-0.746l0.198-1.26L-13.083-48l7.62,2.058l0.941,0.069l1.013-0.532l0.259-0.781l0.258-0.525l0.498-0.525
	l1.395-1.017l5.863-3.638l1.623,0.444l2.075-0.395l0.407-0.243l0.457-0.876l1.013,0.286l0.395,2.058l0.044,1.034l-0.166,0.594
	L9.902-49.28l-2.699,7.816l4.77,8.683l2.474,5.318L2.292-20.238l-1.318,0.667l-3.349,0.243l-4.211-0.23l-9.029-2.876l1.532-3.191
	l2.817-5.974l0.044-0.17l-1.332-8.667L-14.203-44.451" style="font-size:12px;fill-rule:nonzero;stroke:#000000;stroke-width:0.1;stroke-linecap:butt;stroke-linejoin:bevel;stroke-miterlimit:4;stroke-opacity:1;stroke-dasharray:none;marker-start:none;fill:#FF7F40">
 </path>
 <path id="021" inkscape:label="Glenn, CA" fill="#D0D0D0" stroke="#000000" stroke-width="0.1" stroke-linejoin="bevel" d="
	M-42.551-52.585l28.348,8.134l1.651,4.014l1.332,8.66l-0.044,0.171l-2.817,5.974l-27.198-7.694l1.033-2.784l0.377-1.192l1.104-4.284
	l-4.786-1.372L-42.551-52.585" style="font-size:12px;fill-rule:nonzero;stroke:#000000;stroke-width:0.1;stroke-linecap:butt;stroke-linejoin:bevel;stroke-miterlimit:4;stroke-opacity:1;stroke-dasharray:none;marker-start:none;fill:#9C2423">
 </path>
 <path id="063" inkscape:label="Plumas, CA" fill="#D0D0D0" stroke="#000000" stroke-width="0.1" stroke-linejoin="bevel" d="
	M10.793-66.875l5.366,1.483l8.438,2.239l-2.166,8.017l0.394,1.083l3.105,2.768l1.194,0.318l0.683-0.155l0.276-1.011l3.285-2.636
	l1.163-0.348l1.214,0.318l5.578,4.179l7.359,8.634l0.942,1.234l1.619,7.025l-0.026,1.319l-0.322,1.222l-1.621,4.795l-1.8,2.15
	l-9.591-2.548L29.2-28.451l-6.152-4.822l-1.576,0.457l-0.859,0.607l-0.427,1.569l-3.105,1.976l-2.633,1.199l-2.474-5.318
	l-4.77-8.683l2.699-7.819l0.708-0.709l0.166-0.591l-0.044-1.038l-0.395-2.055l-1.013-0.286l2.864-1.957l0.122-0.121l0.241-0.381
	l0.999-2.984l-0.393-2.032l-0.285-0.056l-2.261-1.093l-0.107-0.105l-0.121-0.427l0.014-0.288l0.229-2.893L10.793-66.875" style="font-size:12px;fill-rule:nonzero;stroke:#000000;stroke-width:0.1;stroke-linecap:butt;stroke-linejoin:bevel;stroke-miterlimit:4;stroke-opacity:1;stroke-dasharray:none;marker-start:none;fill:#FF7F40">
 </path>
 <path id="103" inkscape:label="Tehama, CA" fill="#D0D0D0" stroke="#000000" stroke-width="0.1" stroke-linejoin="bevel" d="
	M10.793-66.875l-0.168,0.574l-0.229,2.893l-0.014,0.288l0.121,0.427l0.107,0.105l2.261,1.093l0.285,0.056l0.393,2.032l-0.999,2.984
	l-0.241,0.381l-0.122,0.121l-2.864,1.957l-0.457,0.876l-0.407,0.243l-2.075,0.394l-1.623-0.44l-5.863,3.631l-1.395,1.021
	l-0.498,0.528l-0.258,0.519l-0.259,0.785l-1.013,0.529l-0.941-0.065L-13.083-48l-1.349,1.543l-0.198,1.26l0.427,0.742l-28.348-8.135
	l-0.137-0.217v-1.95l0.984-2.002l1.167-0.684l0.35-0.788l0.105-1.405l-0.153-0.466l-0.104-0.808l0.713-5.925l0.619-2.183
	l0.167-0.151l0.411-1.937l0.027-0.446l-0.166-0.374l-2.047-2.331l2.791-0.322l4.544-0.104l3.635,0.046l7.623,1.031l2.057,1.392
	l3.136,1.005l1.11,0.295l4.181,0.279l3.12-0.109l2.804,0.151l5.197,0.742l4.605,0.913L10.793-66.875" style="font-size:12px;fill-rule:nonzero;stroke:#000000;stroke-width:0.1;stroke-linecap:butt;stroke-linejoin:bevel;stroke-miterlimit:4;stroke-opacity:1;stroke-dasharray:none;marker-start:none;fill:#9C2423">
 </path>
 <path id="045" inkscape:label="Mendocino, CA" fill="#D0D0D0" stroke="#000000" stroke-width="0.1" stroke-linejoin="bevel" d="
	M-74.427-71.313l15.164,4.53l-0.316,1.031l19.345,5.656l0.153,0.462l-0.105,1.405l-0.35,0.791l-1.167,0.683l-0.984,2.005v1.947
	l0.137,0.217l-1.001,9.627l-0.195,0.627l-0.578,1.48l-1.634,0.098l-2.806-0.932l-1.393,0.289l-0.938,2.048l-0.258,0.653
	l-0.364,1.205l0.182,5.961l-0.289,1.815l-1.408,1.572l-1.439,0.44l-0.742,1.398l-0.743,1.744l-0.182,0.62l-0.074,0.364l0.562,2.485
	l1.863,4.891l0.834,1.336l2.756,3.128l-8.32-2.528l-9.815-0.801l-4.484-0.046l-1.304,0.079l-1.546-2.771l-2.317-5.009l1.85-19.083
	l0.104-0.742l0.074-0.338l0.625-1.556l0.727-1.592l0.757-1.104l0.423-0.627l0.578-0.597l0.211-0.289l0.121-0.171l0.03-0.033
	l0.757-1.168l0.06-0.302l0.652-4.36l0.103-1.077l-0.013-6.756l-0.029-0.111l-1.457-3.874l-0.799-2.091L-74.427-71.313" style="font-size:12px;fill-rule:nonzero;stroke:#000000;stroke-width:0.1;stroke-linecap:butt;stroke-linejoin:bevel;stroke-miterlimit:4;stroke-opacity:1;stroke-dasharray:none;marker-start:none;fill:#9C2423">
 </path>
 <path id="023" inkscape:label="Humboldt, CA" fill="#D0D0D0" stroke="#000000" stroke-width="0.1" stroke-linejoin="bevel" d="
	M-45.66-125.629l4.972,1.471l0.606,0.863l-0.243,8.466l-0.53,0.519l-0.559,0.755l-1.002,1.982l-0.062,1.415l0.166,0.286
	l-0.166,2.107l-2.377,2.422l-1.048,0.926l-3.498,2.817l-0.986,5.015l-8.877,29.801l-15.164-4.53l-0.729-1.283l-6.437-12.291
	l-0.199-0.542l0.817-7.852l0.106-0.197l2.757-3.972l1.939-2.501l0.743-0.834l1.334-1.417l1.983-1.927l2.334-2.485l1.29-1.359
	l0.981-1.185l1.29-1.861l1.405-2.472l0.686-1.579l-0.167-0.965l4.074-9.684l3.079-7.136l5.574,1.634l3.545,1.155l-0.667,2.239
	l1.256,1.68L-45.66-125.629" style="font-size:12px;fill-rule:nonzero;stroke:#000000;stroke-width:0.1;stroke-linecap:butt;stroke-linejoin:bevel;stroke-miterlimit:4;stroke-opacity:1;stroke-dasharray:none;marker-start:none;fill:#FFBA59">
 </path>
 <path id="105" inkscape:label="Trinity, CA" fill="#D0D0D0" stroke="#000000" stroke-width="0.1" stroke-linejoin="bevel" d="
	M-40.325-114.829l1.546,1.248l1.486,1.438l2.394,3.588l4.363,4.605l2.544,1.294l0.622,0.089l0.726-0.575l0.394-0.7l-0.29-2.012
	l4.744-4.911l6.804-2.679l3.833,2.36l-0.788,4.409l0.639,0.453l0.528,0.575l0.091,0.41l-0.47,1.714l-0.226,0.381l-0.302,0.437
	l-3.654,3.243l-1.196,0.437l-0.212,0.033l-8.696,10.574l-5.577,7.032l-5.18,2.393l-3.94,3.198l-0.471,1.546l2.047,2.331l0.166,0.371
	l-0.027,0.446l-0.411,1.937l-0.167,0.151l-0.619,2.187l-0.713,5.922l0.104,0.811l-19.345-5.656l0.316-1.031l8.877-29.801
	l0.985-5.015l3.499-2.817l1.048-0.926l2.377-2.422l0.166-2.107l-0.166-0.286l0.062-1.415l1.002-1.982l0.559-0.755L-40.325-114.829" style="font-size:12px;fill-rule:nonzero;stroke:#000000;stroke-width:0.1;stroke-linecap:butt;stroke-linejoin:bevel;stroke-miterlimit:4;stroke-opacity:1;stroke-dasharray:none;marker-start:none;fill:#9C2423">
 </path>
 <path id="089" inkscape:label="Shasta, CA" fill="#D0D0D0" stroke="#000000" stroke-width="0.1" stroke-linejoin="bevel" d="
	M20.927-97.493l3.592,0.953l-3,11.076l-0.059,1.454l-4.043,14.638l-1.256,3.981l-5.366-1.483l-6.605-2.058l-4.605-0.917
	l-5.197-0.738l-2.804-0.151l-3.12,0.109l-4.183-0.279l-1.108-0.295l-3.136-1.001l-2.058-1.396l-7.622-1.034l-3.635-0.042
	l-4.544,0.105l-2.791,0.321l0.471-1.546l3.94-3.198l5.18-2.393l5.577-7.032l8.696-10.574l0.212-0.033l1.196-0.437l3.654-3.243
	l0.302-0.437l0.226-0.381l0.47-1.714l-0.091-0.41l-0.528-0.575l-0.639-0.453l6.546,1.756l8.984,2.607L20.927-97.493" style="font-size:12px;fill-rule:nonzero;stroke:#000000;stroke-width:0.1;stroke-linecap:butt;stroke-linejoin:bevel;stroke-miterlimit:4;stroke-opacity:1;stroke-dasharray:none;marker-start:none;fill:#FF7F40">
 </path>
 <path id="035" inkscape:label="Lassen, CA" fill="#D0D0D0" stroke="#000000" stroke-width="0.1" stroke-linejoin="bevel" d="
	M66.307-85.449l-3.459,13.453l-3.891,15.501l-1.953,7.557L56.38-46.5l-0.014,0.043l-2.123,8.065l-3.27,12.271l-0.667,2.472
	l-4.833-0.591l1.8-2.15l1.621-4.795l0.322-1.222l0.026-1.319l-1.619-7.025l-0.942-1.234l-7.359-8.634l-5.578-4.179l-1.214-0.318
	l-1.163,0.348l-3.285,2.636l-0.276,1.011l-0.683,0.155l-1.194-0.318l-3.105-2.768l-0.394-1.083l2.166-8.017l-8.438-2.239
	l1.256-3.981l4.043-14.638l0.059-1.454l3-11.076L66.307-85.449" style="font-size:12px;fill-rule:nonzero;stroke:#000000;stroke-width:0.1;stroke-linecap:butt;stroke-linejoin:bevel;stroke-miterlimit:4;stroke-opacity:1;stroke-dasharray:none;marker-start:none;fill:#FFBA59">
 </path>
 <path id="049" inkscape:label="Modoc, CA" fill="#D0D0D0" stroke="#000000" stroke-width="0.1" stroke-linejoin="bevel" d="
	M30.292-131.748l17.546,4.904l5.758,1.55l0.042,0.017L65-122.261l1.229,0.315l8.941,2.259l-8.863,34.238L24.519-96.541l-3.592-0.953
	l2.836-10.35l3.939-14.634l-0.151-0.092l-0.045-0.135l1.65-6.089l0.299-1.048L30.292-131.748" style="font-size:12px;fill-rule:nonzero;stroke:#000000;stroke-width:0.1;stroke-linecap:butt;stroke-linejoin:bevel;stroke-miterlimit:4;stroke-opacity:1;stroke-dasharray:none;marker-start:none;fill:#9C2423">
 </path>
</svg>
